<svg width="76" height="36" viewBox="0 0 76 36" fill="none" xmlns="http://www.w3.org/2000/svg">
<path d="M0.679688 31.7109C0.627604 31.5807 0.601562 31.112 0.601562 30.3047C0.601562 29.4974 0.601562 28.4818 0.601562 27.2578C0.627604 26.0339 0.653646 24.6667 0.679688 23.1562C0.731771 21.6198 0.770833 20.0703 0.796875 18.5078C0.848958 16.9193 0.901042 15.3828 0.953125 13.8984C1.00521 12.388 1.04427 11.0469 1.07031 9.875C1.1224 8.70312 1.16146 7.7526 1.1875 7.02344C1.21354 6.26823 1.23958 5.86458 1.26562 5.8125C1.29167 5.70833 1.40885 5.44792 1.61719 5.03125C1.82552 4.61458 2.0599 4.1849 2.32031 3.74219C2.60677 3.27344 2.89323 2.86979 3.17969 2.53125C3.46615 2.16667 3.71354 1.9974 3.92188 2.02344C4 2.04948 4.0651 2.57031 4.11719 3.58594C4.19531 4.57552 4.26042 5.85156 4.3125 7.41406C4.39062 8.97656 4.44271 10.7083 4.46875 12.6094C4.52083 14.4844 4.5599 16.3203 4.58594 18.1172C4.63802 19.888 4.67708 21.5026 4.70312 22.9609C4.72917 24.3932 4.75521 25.4479 4.78125 26.125C5.61458 26.2031 6.44792 26.2682 7.28125 26.3203C8.14062 26.3724 8.90885 26.4375 9.58594 26.5156C10.263 26.5677 10.8099 26.6198 11.2266 26.6719C11.6693 26.724 11.9036 26.763 11.9297 26.7891C12.0078 26.8932 12.112 27.1406 12.2422 27.5312C12.3984 27.8958 12.5417 28.2995 12.6719 28.7422C12.8021 29.1589 12.8932 29.5495 12.9453 29.9141C13.0234 30.2786 13.0104 30.5 12.9062 30.5781C9.91146 31.125 7.59375 31.4896 5.95312 31.6719C4.3125 31.8542 3.10156 31.9453 2.32031 31.9453C1.40885 31.9453 0.861979 31.8672 0.679688 31.7109ZM21.3438 9.13281C21.526 9.28906 21.6953 9.58854 21.8516 10.0312C22.0339 10.474 22.1901 11.0078 22.3203 11.6328C22.4505 12.2578 22.5677 12.9349 22.6719 13.6641C22.776 14.3932 22.8672 15.1094 22.9453 15.8125C23.0234 16.5156 23.0755 17.1797 23.1016 17.8047C23.1536 18.4036 23.1927 18.8984 23.2188 19.2891C23.2448 19.7578 23.2578 20.2526 23.2578 20.7734C23.2839 21.2682 23.2839 21.75 23.2578 22.2188C23.2578 22.6615 23.2318 23.0651 23.1797 23.4297C23.1536 23.7943 23.1016 24.0677 23.0234 24.25C22.8672 24.6406 22.5938 24.9141 22.2031 25.0703C21.8385 25.2005 21.4219 25.2917 20.9531 25.3438C20.7188 25.3698 20.3151 25.3828 19.7422 25.3828C19.1953 25.3568 18.5964 25.3307 17.9453 25.3047C17.3203 25.2526 16.7214 25.2005 16.1484 25.1484C15.5755 25.0964 15.1458 25.0443 14.8594 24.9922C14.2865 24.862 13.8698 24.6927 13.6094 24.4844C13.375 24.276 13.1406 23.9766 12.9062 23.5859C12.8281 23.4297 12.763 23.0391 12.7109 22.4141C12.6589 21.763 12.6198 20.9948 12.5938 20.1094C12.5938 19.1979 12.6068 18.2214 12.6328 17.1797C12.6589 16.138 12.6979 15.1484 12.75 14.2109C12.8281 13.2734 12.9062 12.4531 12.9844 11.75C13.0885 11.0469 13.2188 10.5781 13.375 10.3438C13.6354 9.97917 14.0781 9.64062 14.7031 9.32812C15.3542 9.01562 15.9401 8.76823 16.4609 8.58594C16.7214 8.50781 17.0599 8.45573 17.4766 8.42969C17.9193 8.3776 18.375 8.3776 18.8438 8.42969C19.3385 8.45573 19.8073 8.53385 20.25 8.66406C20.6927 8.76823 21.0573 8.92448 21.3438 9.13281ZM19.1562 21.2422C19.2083 21.138 19.2604 20.8255 19.3125 20.3047C19.3906 19.7578 19.4427 19.1068 19.4688 18.3516C19.5208 17.5964 19.5469 16.7891 19.5469 15.9297C19.5729 15.0703 19.5859 14.276 19.5859 13.5469C19.5859 12.8177 19.5599 12.2057 19.5078 11.7109C19.4557 11.1901 19.3906 10.8906 19.3125 10.8125C19.1823 10.7083 18.987 10.6693 18.7266 10.6953C18.4922 10.6953 18.2448 10.7344 17.9844 10.8125C17.724 10.8646 17.4896 10.9427 17.2812 11.0469C17.0729 11.125 16.9297 11.2031 16.8516 11.2812C16.513 11.5677 16.3307 12.0365 16.3047 12.6875C16.3047 12.8698 16.2786 13.3906 16.2266 14.25C16.2005 15.0833 16.1875 15.9948 16.1875 16.9844C16.1875 17.9479 16.2005 18.8464 16.2266 19.6797C16.2786 20.513 16.3698 21.0208 16.5 21.2031C16.6302 21.3854 16.8125 21.5286 17.0469 21.6328C17.3073 21.7109 17.5677 21.75 17.8281 21.75C18.1146 21.75 18.375 21.7109 18.6094 21.6328C18.8698 21.5286 19.0521 21.3984 19.1562 21.2422ZM36.2656 4.64062C36.3438 5.26562 36.3698 6.51562 36.3438 8.39062C36.3438 9.19792 36.3177 10.1745 36.2656 11.3203C36.2396 12.4661 36.1875 13.8464 36.1094 15.4609C36.0312 17.0495 35.9271 18.8984 35.7969 21.0078C35.6927 23.0911 35.5495 25.4609 35.3672 28.1172C35.3151 28.3776 35.1979 28.6641 35.0156 28.9766C34.8594 29.2891 34.6771 29.5755 34.4688 29.8359C34.2604 30.0964 34.0391 30.3177 33.8047 30.5C33.5703 30.6562 33.362 30.7083 33.1797 30.6562C33.1276 30.6302 33.0625 30.4219 32.9844 30.0312C32.9323 29.6406 32.8802 29.0938 32.8281 28.3906C31.6562 28.9115 30.5495 29.263 29.5078 29.4453C28.4661 29.6276 27.6198 29.5104 26.9688 29.0938C26.7083 28.9375 26.4479 28.6641 26.1875 28.2734C25.9531 27.8568 25.7318 27.375 25.5234 26.8281C25.3151 26.2812 25.1458 25.7083 25.0156 25.1094C24.8854 24.4844 24.8203 23.8984 24.8203 23.3516C24.8203 22.9609 24.8464 22.4401 24.8984 21.7891C24.9505 21.138 25.0156 20.4349 25.0938 19.6797C25.1719 18.8984 25.263 18.1172 25.3672 17.3359C25.4714 16.5286 25.5755 15.7865 25.6797 15.1094C25.7839 14.4323 25.875 13.8594 25.9531 13.3906C26.0312 12.9219 26.0964 12.6354 26.1484 12.5312C26.2005 12.2188 26.2917 11.9583 26.4219 11.75C26.5781 11.5417 26.7083 11.3854 26.8125 11.2812C27.0729 11.0729 27.4505 10.9167 27.9453 10.8125C28.4661 10.7083 29 10.6432 29.5469 10.6172C30.1198 10.5911 30.6536 10.6042 31.1484 10.6562C31.6432 10.6823 32.0078 10.7344 32.2422 10.8125H32.3203C32.2682 7.58333 32.2682 5.09635 32.3203 3.35156C32.3724 1.60677 32.4766 0.669271 32.6328 0.539062C32.737 0.460938 32.9714 0.526042 33.3359 0.734375C33.7005 0.942708 34.0781 1.24219 34.4688 1.63281C34.8854 2.02344 35.263 2.49219 35.6016 3.03906C35.9661 3.5599 36.1875 4.09375 36.2656 4.64062ZM30.3281 26.5156C30.6927 26.4375 31.0182 26.3464 31.3047 26.2422C31.6172 26.112 31.8776 25.9948 32.0859 25.8906C32.3203 25.7865 32.5156 25.6562 32.6719 25.5C32.6458 24.8229 32.6198 24.0677 32.5938 23.2344C32.5677 22.375 32.5417 21.4896 32.5156 20.5781C32.4896 19.6667 32.4635 18.7422 32.4375 17.8047C32.4115 16.8411 32.3854 15.9167 32.3594 15.0312C32.3594 14.7448 32.3073 14.4974 32.2031 14.2891C32.125 14.0807 32.0208 13.9115 31.8906 13.7812C31.8125 13.7292 31.6562 13.6641 31.4219 13.5859C31.1875 13.4818 30.9141 13.4036 30.6016 13.3516C30.3151 13.2734 30.0286 13.2344 29.7422 13.2344C29.4818 13.2344 29.2995 13.2865 29.1953 13.3906C29.1432 13.4167 29.0911 13.6771 29.0391 14.1719C29.013 14.6406 28.974 15.2396 28.9219 15.9688C28.8958 16.6719 28.8568 17.4401 28.8047 18.2734C28.7786 19.1068 28.7526 19.888 28.7266 20.6172C28.7005 21.3464 28.6745 21.9714 28.6484 22.4922C28.6224 23.013 28.6094 23.2995 28.6094 23.3516C28.6094 23.7943 28.6615 24.2109 28.7656 24.6016C28.8958 24.9922 29.0521 25.3438 29.2344 25.6562C29.4167 25.9427 29.612 26.1771 29.8203 26.3594C30.0286 26.5156 30.1979 26.5677 30.3281 26.5156ZM48.3359 31.75C48.2839 31.9062 48.1276 32.1536 47.8672 32.4922C47.6068 32.8307 47.2943 33.1823 46.9297 33.5469C46.5651 33.9115 46.2005 34.237 45.8359 34.5234C45.4714 34.8099 45.1719 34.9922 44.9375 35.0703C44.4167 35.2266 43.8568 35.1875 43.2578 34.9531C42.6849 34.7448 42.125 34.4583 41.5781 34.0938C41.0573 33.7292 40.6016 33.3516 40.2109 32.9609C39.8203 32.5964 39.5729 32.3229 39.4688 32.1406C39.3906 31.9583 39.3125 31.7109 39.2344 31.3984C39.1823 31.0859 39.1432 30.7734 39.1172 30.4609C39.0911 30.1484 39.0911 29.888 39.1172 29.6797C39.1693 29.4453 39.2604 29.3281 39.3906 29.3281C39.5208 29.3281 39.8203 29.4583 40.2891 29.7188C40.7839 29.9531 41.2917 30.2005 41.8125 30.4609C42.3594 30.7214 42.8672 30.9297 43.3359 31.0859C43.8047 31.2422 44.0911 31.2161 44.1953 31.0078C44.2995 30.8255 44.3906 30.3177 44.4688 29.4844C44.5729 28.625 44.6901 27.5833 44.8203 26.3594C44.7682 26.3594 44.7161 26.3724 44.6641 26.3984C44.638 26.3984 44.599 26.3984 44.5469 26.3984C44.3125 26.4766 43.987 26.5156 43.5703 26.5156C43.1536 26.5156 42.7109 26.4896 42.2422 26.4375C41.7995 26.3854 41.3568 26.2943 40.9141 26.1641C40.4974 26.0078 40.1589 25.8125 39.8984 25.5781C39.7943 25.474 39.6771 25.3177 39.5469 25.1094C39.4427 24.875 39.3646 24.5755 39.3125 24.2109C39.2344 24.0547 39.1042 23.612 38.9219 22.8828C38.7396 22.1276 38.5573 21.2812 38.375 20.3438C38.1927 19.3802 38.0234 18.4167 37.8672 17.4531C37.737 16.4896 37.6979 15.7214 37.75 15.1484C37.776 14.5755 37.8802 13.9896 38.0625 13.3906C38.2448 12.7656 38.4531 12.1797 38.6875 11.6328C38.9479 11.0859 39.2214 10.6172 39.5078 10.2266C39.7943 9.8099 40.0807 9.52344 40.3672 9.36719C40.9922 9.05469 41.7734 8.98958 42.7109 9.17188C43.6484 9.35417 44.651 9.70573 45.7188 10.2266C45.7448 9.96615 45.862 9.67969 46.0703 9.36719C46.2786 9.05469 46.513 8.78125 46.7734 8.54688C47.0599 8.28646 47.3464 8.10417 47.6328 8C47.9193 7.86979 48.1406 7.85677 48.2969 7.96094C48.375 8.01302 48.4401 8.3776 48.4922 9.05469C48.5443 9.70573 48.5833 10.5651 48.6094 11.6328C48.6615 12.6745 48.6875 13.8724 48.6875 15.2266C48.7135 16.5547 48.7135 17.9349 48.6875 19.3672C48.6875 20.7734 48.6745 22.1667 48.6484 23.5469C48.6484 24.9271 48.6224 26.1901 48.5703 27.3359C48.5443 28.4818 48.5052 29.4453 48.4531 30.2266C48.4271 31.0078 48.388 31.5156 48.3359 31.75ZM45.6016 13.1953C45.4453 13.0911 45.263 12.987 45.0547 12.8828C44.8724 12.7786 44.6641 12.6745 44.4297 12.5703C44.1953 12.4661 43.9349 12.375 43.6484 12.2969C43.5182 12.2448 43.3359 12.2969 43.1016 12.4531C42.8932 12.6094 42.6719 12.8307 42.4375 13.1172C42.2292 13.4036 42.0469 13.7552 41.8906 14.1719C41.7344 14.5625 41.6562 14.9792 41.6562 15.4219C41.6562 15.474 41.6693 15.7214 41.6953 16.1641C41.7214 16.6068 41.7604 17.1406 41.8125 17.7656C41.8646 18.3906 41.9167 19.0677 41.9688 19.7969C42.0208 20.526 42.0729 21.2031 42.125 21.8281C42.2031 22.4531 42.2682 22.987 42.3203 23.4297C42.3724 23.8464 42.4115 24.0677 42.4375 24.0938C42.5417 24.1979 42.6849 24.25 42.8672 24.25C43.0755 24.25 43.2708 24.224 43.4531 24.1719C43.6615 24.1198 43.8438 24.0547 44 23.9766C44.1562 23.8984 44.2734 23.8333 44.3516 23.7812C44.6901 23.5469 44.8984 23.0911 44.9766 22.4141C45.0286 22.362 45.0547 22.2188 45.0547 21.9844C45.1328 20.2656 45.2109 18.7161 45.2891 17.3359C45.3672 15.9297 45.4714 14.5495 45.6016 13.1953ZM54 19.2109C54.4167 19.0547 54.8854 18.8854 55.4062 18.7031C55.9531 18.4948 56.474 18.3125 56.9688 18.1562C57.4635 17.974 57.9062 17.8177 58.2969 17.6875C58.6875 17.5573 58.974 17.4531 59.1562 17.375C59.1302 17.0885 59.0911 16.763 59.0391 16.3984C59.013 16.0078 58.974 15.6432 58.9219 15.3047C58.8698 14.9401 58.8047 14.6276 58.7266 14.3672C58.6484 14.1068 58.5703 13.9505 58.4922 13.8984C58.2839 13.8203 57.9323 13.7552 57.4375 13.7031C56.9688 13.625 56.474 13.638 55.9531 13.7422C55.4583 13.8464 55.0026 14.0417 54.5859 14.3281C54.1693 14.6146 53.9349 15.0703 53.8828 15.6953C53.8307 16.112 53.8177 16.6328 53.8438 17.2578C53.8698 17.8828 53.9219 18.5339 54 19.2109ZM62.4766 19.8359C62.4505 19.888 62.138 19.9922 61.5391 20.1484C60.9401 20.3047 60.224 20.474 59.3906 20.6562C58.5573 20.8125 57.6719 20.9818 56.7344 21.1641C55.7969 21.3203 54.9896 21.4505 54.3125 21.5547C54.4427 22.5964 54.599 23.5339 54.7812 24.3672C54.9635 25.1745 55.1198 25.6823 55.25 25.8906C55.3802 26.0729 55.5495 26.2422 55.7578 26.3984C55.9401 26.5286 56.1615 26.6589 56.4219 26.7891C56.7083 26.8932 57.0469 26.9714 57.4375 27.0234C57.724 27.1016 57.9974 26.9974 58.2578 26.7109C58.4661 26.4505 58.6484 25.9948 58.8047 25.3438C58.987 24.6927 59.0781 23.6641 59.0781 22.2578C59.8854 22.1276 60.5104 22.0495 60.9531 22.0234C61.4219 21.9974 61.7604 21.9974 61.9688 22.0234C62.2292 22.0495 62.3854 22.0885 62.4375 22.1406C62.4635 22.2188 62.4635 22.4141 62.4375 22.7266C62.4115 23.0391 62.3464 23.4297 62.2422 23.8984C62.1641 24.3411 62.0599 24.8359 61.9297 25.3828C61.8255 25.9036 61.6953 26.4115 61.5391 26.9062C61.3828 27.375 61.2135 27.8047 61.0312 28.1953C60.849 28.5599 60.6536 28.8203 60.4453 28.9766C59.8203 29.4453 59.0391 29.6797 58.1016 29.6797C57.1641 29.6536 56.2396 29.5234 55.3281 29.2891C54.4167 29.0286 53.5964 28.7292 52.8672 28.3906C52.138 28.026 51.6823 27.7266 51.5 27.4922C51.3698 27.3359 51.2526 26.9453 51.1484 26.3203C51.0443 25.6693 50.9531 24.888 50.875 23.9766C50.8229 23.0651 50.7839 22.0625 50.7578 20.9688C50.7318 19.875 50.7448 18.8073 50.7969 17.7656C50.875 16.724 50.9792 15.7604 51.1094 14.875C51.2656 13.9896 51.474 13.2734 51.7344 12.7266C52.125 11.9453 52.763 11.3073 53.6484 10.8125C54.5339 10.3177 55.4714 9.97917 56.4609 9.79688C57.4505 9.61458 58.388 9.58854 59.2734 9.71875C60.1849 9.84896 60.862 10.1354 61.3047 10.5781C61.5651 10.8385 61.7995 11.3594 62.0078 12.1406C62.2161 12.8958 62.3464 13.8203 62.3984 14.9141C62.3984 15.0182 62.4115 15.3177 62.4375 15.8125C62.4635 16.3073 62.4766 16.8411 62.4766 17.4141C62.5026 17.9609 62.5156 18.4818 62.5156 18.9766C62.5156 19.4714 62.5026 19.7578 62.4766 19.8359ZM73.4922 9.21094C73.7005 9.34115 73.8958 9.60156 74.0781 9.99219C74.2865 10.3568 74.4688 10.7865 74.625 11.2812C74.8073 11.75 74.9505 12.2578 75.0547 12.8047C75.1849 13.3516 75.2891 13.8594 75.3672 14.3281C75.4714 14.7969 75.5365 15.2005 75.5625 15.5391C75.5885 15.8516 75.5885 16.0469 75.5625 16.125C75.5104 16.2292 75.3542 16.3333 75.0938 16.4375C74.8594 16.5417 74.5078 16.6589 74.0391 16.7891C73.5703 16.9193 72.9193 17.0625 72.0859 17.2188C72.0339 15.7865 71.9297 14.7057 71.7734 13.9766C71.6172 13.2214 71.4479 12.6875 71.2656 12.375C71.0573 12.0104 70.8359 11.8281 70.6016 11.8281C70.3672 11.9323 70.1589 12.0625 69.9766 12.2188C69.7943 12.349 69.638 12.4922 69.5078 12.6484C69.3516 12.8307 69.2083 13.026 69.0781 13.2344C69.026 13.3125 68.974 13.4948 68.9219 13.7812C68.8698 14.0677 68.8177 14.4974 68.7656 15.0703C68.7656 15.2526 68.7526 15.6302 68.7266 16.2031C68.7266 16.776 68.7135 17.4401 68.6875 18.1953C68.6875 18.9505 68.6745 19.7448 68.6484 20.5781C68.6484 21.4115 68.6354 22.1927 68.6094 22.9219C68.6094 23.625 68.5964 24.224 68.5703 24.7188C68.5703 25.2135 68.5573 25.5 68.5312 25.5781C68.4792 25.7083 68.349 25.8906 68.1406 26.125C67.9323 26.3594 67.6979 26.5807 67.4375 26.7891C67.1771 26.9714 66.9297 27.1276 66.6953 27.2578C66.4609 27.362 66.3047 27.349 66.2266 27.2188C66.1484 27.1406 66.0703 26.8021 65.9922 26.2031C65.9141 25.6042 65.8229 24.875 65.7188 24.0156C65.6406 23.1302 65.5495 22.1667 65.4453 21.125C65.3411 20.0833 65.25 19.0807 65.1719 18.1172C65.0938 17.1536 65.0286 16.2943 64.9766 15.5391C64.9245 14.7578 64.8854 14.1979 64.8594 13.8594C64.8333 13.3646 64.8073 12.8177 64.7812 12.2188C64.7552 11.6198 64.7292 11.0599 64.7031 10.5391C64.7031 9.99219 64.7031 9.52344 64.7031 9.13281C64.7292 8.71615 64.7812 8.46875 64.8594 8.39062C64.9115 8.3125 65.0807 8.29948 65.3672 8.35156C65.6797 8.3776 66.0052 8.45573 66.3438 8.58594C66.7083 8.6901 67.0469 8.83333 67.3594 9.01562C67.6719 9.19792 67.8802 9.36719 67.9844 9.52344C68.0625 9.65365 68.1406 9.84896 68.2188 10.1094C68.7135 9.84896 69.1823 9.61458 69.625 9.40625C70.0938 9.17188 70.5365 9.0026 70.9531 8.89844C71.3958 8.79427 71.8255 8.76823 72.2422 8.82031C72.6589 8.84635 73.0755 8.97656 73.4922 9.21094Z" fill="#DF2C00"/>
</svg>
